<svg version="1" xmlns="http://www.w3.org/2000/svg" width="933.333" height="933.333" viewBox="0 0 700.000000 700.000000"><path d="M201 1c-4.4 1.2-8.4 3.8-10.5 6.6-2 2.6-25.5 40.4-33.6 53.9-2.3 3.8-5.7 9.2-7.4 12-1.8 2.7-10 16-18.4 29.5-8.3 13.5-15.5 25-16.1 25.7-.5.7-1 1.4-1 1.7 0 .4-20.7 33.9-25 40.6-2.8 4.2-4.9 8.9-5.3 11.7-.8 5.2 1.2 11.8 4.8 16.1 5.5 6.4 9.3 7.3 28.6 7.4h16.7l-1.6 2.7c-1 1.4-21.1 31.7-44.9 67.4-23.8 35.6-43.6 66.2-44.2 68.1-1.1 4.1-.5 9.9 1.5 14.3 1.9 4.1 8.6 9.9 12.7 10.8 1.8.4 11.9.7 22.5.7H99l-2.2 3.1c-1.2 1.8-9.9 13.8-19.2 26.7-9.4 12.9-22.2 30.7-28.6 39.5-6.3 8.8-14.3 19.8-17.7 24.5C-1.2 508.4-1.1 508.3.8 517.7c1.4 6.7 5.1 11.6 11 14.4l4.6 2.3H206l189.5-.1 4.2-2.1c5.1-2.7 10.1-8.6 11-13.2 1.8-8.8.5-12.2-11.2-28.5-5.8-8.1-10.5-15.1-10.5-15.5 0-.5-.3-1-.7-1.2-.9-.4-4-4.4-10.8-14.3-2.7-3.9-5.3-7.5-5.8-8-.4-.6-9.1-12.7-19.3-27-10.2-14.3-19.2-26.9-20-28-12.2-17-18.3-25.5-18.1-25.7.1 0 8.5-.2 18.7-.3 10.2-.2 19.7-.5 21.1-.8 6.3-1.2 12.8-6.7 15.1-12.6 1.4-3.6 1.2-12.4-.3-15.3-2.2-4.2-16.2-25.3-17.1-25.6-.4-.2-.8-.7-.8-1.2s-15.9-24.6-35.3-53.7c-19.4-29-35.6-53.3-36-53.9-.4-.8 4.4-1.1 16.2-1.2 13.1-.1 17.8-.5 20.7-1.7 8.1-3.3 12.6-10.4 12.5-19.3 0-5.8-.6-6.9-14.8-29.7-6.2-10.1-29.5-47.6-38.1-61.5-3.6-5.8-8.9-14.3-11.8-19-2.9-4.7-8.6-13.8-12.6-20.3s-8-12.9-8.8-14.2c-.8-1.3-2.8-4.5-4.4-7.2C226 12.4 221 5.4 217.1 3.2 212.9.8 205.3-.2 201 1zM486.9 1.4c-6.2 2.2-9.5 5.5-14.8 14.6-.8 1.4-8.4 13.7-17 27.5-8.5 13.7-19.2 31.1-23.8 38.5-4.6 7.4-8.7 14.2-9.3 15-.6.8-3.8 6-7.2 11.5-3.3 5.5-7.5 12.2-9.3 15-4.9 7.8-23.9 38.3-25 40.3-.6.9-3 5-5.4 9-3.7 6.1-4.3 8.1-4.3 12.5 0 8.8 4.7 15.9 12.7 19.3 3.2 1.3 7.3 1.6 20.7 1.6l16.8-.1-1.8 2.7c-.9 1.5-10.8 16.4-22 33.2-11.2 16.8-20.8 31.3-21.4 32.3-.8 1.5.3 3.6 5.1 10.8 3.4 5 6.1 9.4 6.1 9.9 0 .4.3 1 .8 1.2.9.4 13 18.5 16.5 24.8 4.5 8 6.8 17.6 6.9 28 .1 17.3-5.7 31.5-17.9 43.9-4 4-7.3 7.5-7.3 7.7 0 .2 13.3 18.9 29.5 41.6 34.4 48.2 35.5 50.2 36.1 67.8.2 7-.1 12.6-1.1 16.9-1 3.9-1.2 6.7-.6 7 .5.3 53.3.6 117.3.5h116.4l4.6-2.3c6.8-3.2 11.2-9.8 11.6-17.2.3-5.4-2.1-11-8.7-20.1-3.4-4.6-6.7-9.2-7.5-10.3-2.6-3.6-32.5-45-34-47-7.9-10.7-47.4-65.3-47.9-66.1-.4-.7 5.6-1.1 19.7-1.1 20.1-.1 20.5-.1 25.3-2.7 10-5.5 13.6-17.3 8.3-27.7-1.2-2.3-2.6-4.7-3.1-5.3-.6-.6-14.9-22-31.9-47.6s-31.3-47-31.7-47.5c-1.8-2.3-20.5-30.7-20.9-32-.4-1 2.8-1.3 16.4-1.3 15.1 0 17.4-.3 21-2.1 10.3-5.3 14.6-17.9 9.4-27.7-1-1.7-10.7-17.6-21.7-35.3-11-17.7-23-37-26.6-42.9-7.2-11.7-10.2-16.5-29.3-47.2-7-11.3-13.2-21.2-13.7-22-8.3-13.7-13.5-21.8-14.9-23.1-4.8-4.7-14.8-6.8-21.1-4.5zM165.9 575.9c-.1.3-.3 18.4-.4 40.1-.1 21.7-.3 40.2-.4 41.1-.1 1.5-6.6 1.7-74.6 1.7-73.9 0-74.6.1-78.9 2.2C4.1 664.6 0 671.6.4 680.1c.4 8.2 4.9 15 12.1 18 2.4 1 70 1.3 336.5 1.4 183.4.1 334.9-.2 336.5-.7 3.9-1 10.1-6.1 12.1-10 5.2-10 .9-22.9-9.3-27.9l-4.5-2.2-74.4.1c-40.9 0-74.5-.3-74.5-.6-.1-.4-.2-19.2-.3-41.7l-.1-41-40.8-.1c-22.4 0-40.8.2-40.8.5-.1.3-.2 19-.3 41.6l-.1 41h-205V617l-.1-41.5-40.7-.1c-22.4-.1-40.8.2-40.8.5z"/></svg>